<svg width="40" height="40" viewBox="0 0 40 40" fill="none" xmlns="http://www.w3.org/2000/svg">
<path fill-rule="evenodd" clip-rule="evenodd" d="M20 40C31.0457 40 40 31.0457 40 20C40 8.9543 31.0457 0 20 0C8.9543 0 0 8.9543 0 20C0 31.0457 8.9543 40 20 40ZM15.2925 27.1042C14.5779 27.8187 14.5759 28.9766 15.2879 29.6937C16.0035 30.4144 17.1685 30.4165 17.8867 29.6983L26.8779 20.7071C27.2684 20.3166 27.2684 19.6834 26.8779 19.2929L17.8782 10.2932C17.164 9.57899 16.006 9.57899 15.2918 10.2932C14.5781 11.0069 14.5775 12.1638 15.2904 12.8782L22.3967 20L15.2925 27.1042Z" fill="white"/>
</svg>
